<!-- Generated by IcoMoon.io -->
<svg version="1.1" xmlns="http://www.w3.org/2000/svg" width="1024" height="1024" viewBox="0 0 1024 1024">
<title></title>
<g id="icomoon-ignore">
</g>
<path fill="#334c8c" d="M1024 512c0 282.77-229.23 512-512 512s-512-229.23-512-512c0-282.77 229.23-512 512-512s512 229.23 512 512z"></path>
<path fill="#fff" d="M641.752 463.562l-8.488 71.276c-0.772 6.776-6.473 11.992-13.392 11.992-0.029 0-0.057 0-0.086 0h-74.101v211.537c0 0.020 0 0.044 0 0.068 0 5.236-4.207 9.49-9.425 9.565h-75.527c-5.225-0.075-9.433-4.329-9.433-9.565 0-0.048 0-0.095 0.001-0.143v0.007l0.404-211.469h-56.118c-7.441 0-13.474-6.032-13.474-13.474v0-71.276c0-7.441 6.032-13.474 13.474-13.474v0h55.781v-69.12c0-79.966 47.562-123.486 117.221-123.486h57.061c7.441 0 13.474 6.032 13.474 13.474v0 60.025c0 7.441-6.032 13.474-13.474 13.474v0h-34.964c-37.861 0.606-45.002 18.728-45.002 45.811v59.621h82.931c7.341 0.13 13.243 6.112 13.243 13.472 0 0.594-0.038 1.18-0.113 1.754l0.007-0.068z"></path>
</svg>
