<!-- Generated by IcoMoon.io -->
<svg version="1.1" xmlns="http://www.w3.org/2000/svg" width="1024" height="1024" viewBox="0 0 1024 1024">
<title></title>
<g id="icomoon-ignore">
</g>
<path fill="#0077b5" d="M139.637 0h744.727c77.119 0 139.636 62.517 139.636 139.636v744.727c0 77.119-62.517 139.636-139.636 139.636h-744.727c-77.119 0-139.636-62.517-139.636-139.636v-744.727c0-77.119 62.517-139.636 139.636-139.636z"></path>
<path fill="#fff" d="M368.874 279.273c0 48.199-39.073 87.273-87.273 87.273s-87.273-39.073-87.273-87.273c0-48.199 39.073-87.273 87.273-87.273v0c48.199 0 87.273 39.073 87.273 87.273v0z"></path>
<path fill="#fff" d="M349.092 424.727v385.571c0 0.035 0 0.075 0 0.116 0 11.921-9.664 21.585-21.585 21.585 0 0 0 0 0 0h-91.985c-0.017 0-0.038 0-0.058 0-11.921 0-21.585-9.664-21.585-21.585 0-0.020 0-0.041 0-0.061v0.003-385.629c0-11.953 9.69-21.644 21.644-21.644v0h91.985c11.928 0.033 21.585 9.711 21.585 21.644 0 0 0 0 0 0v0z"></path>
<path fill="#fff" d="M829.906 625.455v186.647c0 0.017 0 0.038 0 0.058 0 10.957-8.883 19.84-19.84 19.84-0.020 0-0.041 0-0.061 0h-98.906c-0.017 0-0.038 0-0.058 0-10.957 0-19.84-8.883-19.84-19.84 0-0.020 0-0.041 0-0.061v0.003-180.887c0-26.996 7.913-118.225-70.575-118.225-60.8 0-73.193 62.429-75.636 90.473v208.64c0 0.001 0 0.001 0 0.002 0 10.887-8.744 19.732-19.592 19.896h-95.55c0 0 0 0 0 0-10.957 0-19.84-8.883-19.84-19.84 0-0.020 0-0.041 0-0.061v0.003-389.062c0-0.017 0-0.038 0-0.058 0-10.957 8.883-19.84 19.84-19.84 0 0 0 0 0 0h95.535c10.989 0 19.898 8.909 19.898 19.898v33.629c22.575-33.862 56.029-59.985 127.418-59.985 158.138 0 157.207 147.665 157.207 228.771z"></path>
</svg>
