<svg version="1.1" xmlns="http://www.w3.org/2000/svg" width="3697" height="1024" viewBox="0 0 3697 1024">
<path fill="#fff" d="M31.011 4.603c-3.015 3.91-4.193 8.526-5.652 19.455-1.044 9.126-1.64 19.702-1.64 30.418 0 1.644 0.014 3.285 0.042 4.923l-0.003-0.246c-0.376 17.429 0.424 29.63-0.094 52.053s-1.225 35.518-2.59 60.155-2.214 38.392-4.193 62.887-3.486 37.073-5.7 59.778-3.297 33.87-5.182 53.842-3.109 29.206-4.287 45.976c-1.104 8.88-1.734 19.156-1.734 29.58 0 2.883 0.048 5.756 0.144 8.615l-0.011-0.416c0.155 10.252 2.305 19.959 6.077 28.81l-0.189-0.499c2.392 7.443 6.824 13.671 12.637 18.215l0.082 0.062c5.315 4.806 12.163 8.010 19.729 8.797l0.15 0.013c3.242 0.611 6.973 0.96 10.785 0.96 5.305 0 10.452-0.677 15.359-1.949l-0.424 0.093c11.812-2.453 22.178-5.801 32.030-10.106l-1.034 0.403c13.567-5.041 20.916-9.139 36.648-15.593s24.872-10.317 41.877-16.77 26.474-9.657 43.149-15.403 25.202-8.62 40.088-13.189 22.14-6.030 34.34-9.704 18.089-5.511 26.521-8.573c6.19-2.134 11.402-4.425 16.391-7.079l-0.61 0.296c4.852-2.449 7.066-3.109 8.573-5.417 0.606-0.709 0.974-1.636 0.974-2.65 0-1.492-0.799-2.797-1.993-3.511l-0.019-0.010c-2.471-1.451-5.443-2.308-8.614-2.308-0.633 0-1.258 0.034-1.872 0.1l0.076-0.007c-1.757-0.17-3.799-0.267-5.863-0.267-4.308 0-8.517 0.424-12.588 1.231l0.41-0.068c-10.739 1.713-20.168 4.040-29.28 7.062l1.299-0.373c-12.389 3.816-19.266 7.066-34.058 12.436s-23.271 8.385-39.993 14.273-26.239 9.092-43.48 15.074-26.709 9.563-42.726 14.839-24.26 7.443-37.544 11.588-19.172 6.265-28.688 9.28c-5.208 2.112-11.506 4.072-17.991 5.538l-0.851 0.162c-5.889 0.895-7.49 1.272-10.74-1.366s-4.004-4.428-5.558-11.588c-1.334-7.185-2.168-15.528-2.307-24.038l-0.002-0.127c-0.754-11.965-1.602-19.549-1.602-35.801s0.66-25.579 1.79-45.458 2.073-31.043 3.957-53.748 3.25-35.283 5.37-59.872 3.109-38.345 5.182-63.028 3.25-37.779 5.088-60.249 2.968-34.576 4.051-52.1c0.938-8.014 1.474-17.298 1.474-26.707 0-3.049-0.056-6.085-0.167-9.107l0.013 0.437c-0.848-11.070-2.59-15.969-5.558-19.973-0.875-1.773-2.671-2.971-4.746-2.971-2.057 0-3.838 1.177-4.709 2.894l-0.014 0.030"></path>
<path fill="#fff" d="M378.609 266.514c-3.156 2.874-4.757 6.501-6.218 14.415-1.059 4.918-1.666 10.567-1.666 16.358 0 3.132 0.177 6.223 0.523 9.263l-0.034-0.372c0.599 11.777 2.778 22.84 6.33 33.266l-0.253-0.857c3.676 11.762 8.807 22 15.306 31.202l-0.232-0.347c5.558 8.863 12.514 16.299 20.642 22.218l0.225 0.157c12.087 9.439 27.497 15.136 44.238 15.136 3.22 0 6.391-0.21 9.5-0.619l-0.365 0.039c10.926-1.26 20.846-4.601 29.685-9.623l-0.386 0.201c10.593-5.135 19.682-11.514 27.593-19.112l-0.036 0.034c17.124-16.552 31.629-35.669 42.926-56.761l0.6-1.227c4.045-8.077 7.048-17.451 8.511-27.328l0.062-0.512c1.319-8.009-0.848-11.588-1.884-12.153s-3.062 2.637-3.297 9.139c-0.16 1.762-0.251 3.812-0.251 5.883 0 6.248 0.831 12.303 2.388 18.059l-0.111-0.483c2.637 11.228 6.641 21.128 11.915 30.198l-0.279-0.521c5.449 9.823 12.066 18.226 19.816 25.427l0.063 0.058c6.496 6.669 14.174 12.147 22.703 16.102l0.474 0.197c7.033 3.744 15.24 6.362 23.94 7.366l0.32 0.030c2.045 0.373 4.399 0.588 6.802 0.588 4.232 0 8.309-0.663 12.133-1.891l-0.28 0.078c4.505-0.713 8.366-3.046 11.044-6.372l0.026-0.034c0.677-0.908 1.083-2.053 1.083-3.292 0-1.806-0.863-3.411-2.2-4.423l-0.014-0.010c-2.261-2.214-5.417-2.026-10.27-3.344s-7.49-1.554-13.991-3.25c-6.902-1.109-13.094-2.981-18.901-5.561l0.482 0.191c-6.336-2.784-11.574-7.068-15.422-12.419l-0.075-0.11c-4.381-6.548-8.128-14.073-10.865-22.066l-0.204-0.686c-4.193-9.892-5.417-17.1-9.986-26.568-3.277-7.996-7.628-14.871-12.968-20.843l0.060 0.069c-5.652-5.841-9.28-8.809-15.45-8.479s-9.469 3.391-15.262 10.317-7.631 13.849-13.661 24.307c-5.595 10.92-11.039 20.028-16.987 28.765l0.594-0.925c-6.256 8.905-13.105 16.681-20.713 23.644l-0.108 0.097c-6.291 6.277-13.447 11.691-21.272 16.048l-0.491 0.251c-6.159 3.943-13.363 6.907-21.078 8.459l-0.403 0.067c-3.028 0.878-6.506 1.384-10.101 1.384-3.34 0-6.58-0.437-9.663-1.255l0.262 0.059c-6.559-1.232-12.235-4.387-16.575-8.849l-0.007-0.007c-5.517-5.036-9.9-11.217-12.783-18.175l-0.124-0.337c-3.582-7.593-6.616-16.468-8.651-25.717l-0.157-0.85c-2.874-10.976-3.344-18.136-5.558-28.216-1.745-9.027-3.636-16.484-5.888-23.781l0.424 1.595c-2.308-7.066-2.827-10.505-5.936-13.142-1.214-1.317-2.947-2.139-4.871-2.139-1.856 0-3.535 0.764-4.736 1.996l-0.001 0.001"></path>
<path fill="#fff" d="M696.719 88.829c-2.261 3.957-3.627 7.537-2.733 18.089 1.671 13.127 4.197 24.847 7.611 36.182l-0.404-1.559c4.004 16.346 7.631 27.416 12.907 47.153s8.244 31.797 13.426 51.534 7.772 30.007 12.436 47.059 6.077 24.872 10.834 38.251c3.601 10.965 7.988 20.436 13.312 29.28l-0.357-0.64c3.567 7.193 8.476 13.216 14.448 17.96l0.107 0.082c4.438 4.176 10.433 6.741 17.027 6.741 0.175 0 0.349-0.002 0.524-0.005h-0.026c0.304 0.011 0.662 0.017 1.021 0.017 7.032 0 13.504-2.4 18.641-6.427l-0.066 0.050c7.825-5.148 14.396-11.493 19.633-18.854l0.151-0.224c7.819-9.845 11.070-17.429 19.455-30.242s13.237-21.292 22.517-33.87 15.262-18.796 23.883-28.923 12.954-14.792 19.408-21.622 9.092-8.573 12.907-12.484c2.118-2.155 4.122-4.443 5.992-6.842l0.132-0.176c1.743-2.12 2.355-1.979 2.686-3.627 0.138-0.42 0.218-0.901 0.218-1.403 0-1.273-0.516-2.426-1.349-3.261v0c-1.192-1.027-2.755-1.653-4.464-1.653-0.573 0-1.128 0.070-1.66 0.202l0.047-0.010c-4.122 0.046-7.993 1.086-11.393 2.892l0.135-0.065c-6.683 2.937-12.442 6.553-17.586 10.877l0.109-0.089c-8.545 6.565-16.098 13.594-22.939 21.27l-0.143 0.163c-9.516 10.458-14.556 18.042-24.401 30.855s-15.64 20.916-24.872 33.163-14.556 18.512-21.198 28.122-8.432 14.415-12.012 20.068-3.627 7.443-5.841 8.197-2.355-0.424-5.088-4.475c-2.974-4.493-5.779-9.661-8.13-15.073l-0.255-0.661c-3.957-8.432-6.406-13.943-11.259-26.474s-7.866-19.596-12.954-36.084-7.819-26.756-12.672-46.399-7.349-31.797-11.494-51.722-5.747-31.515-9.421-47.907c-2.512-13.22-5.624-24.621-9.517-35.653l0.52 1.689c-3.627-9.798-5.7-12.436-9.233-15.121-0.934-1.079-2.305-1.757-3.835-1.757-2.203 0-4.077 1.407-4.774 3.37l-0.011 0.035"></path>
<path fill="#fff" d="M842.231 342.214c1.319 4.71 4.71 8.62 12.106 15.45 7.241 7.028 15.406 13.168 24.28 18.204l0.592 0.308c10.173 5.849 22.145 11.479 34.586 16.152l1.733 0.571c10.225 4.403 23.29 9.056 36.665 12.988l2.67 0.673c10.833 3.866 23.629 7.026 36.834 8.917l1.086 0.127c4.835 0.836 10.405 1.315 16.086 1.315 6.624 0 13.095-0.65 19.356-1.889l-0.63 0.104c7.255-2.261 7.584-6.736 1.413-10.74s-18.749-5.558-32.268-9.28-21.057-4.522-35.377-9.327c-14.301-4.628-26.3-9.59-37.829-15.355l1.557 0.705c-13.849-6.595-21.010-12.059-32.786-18.418-7.049-4.258-15.611-8.757-24.429-12.789l-1.667-0.683c-8.903-3.721-13.661-5.794-18.465-5.229-0.072-0.003-0.156-0.005-0.241-0.005-3.2 0-5.794 2.594-5.794 5.794 0 0.873 0.193 1.7 0.539 2.443l-0.015-0.036"></path>
<path fill="#fff" d="M1219.271 266.091c-1.263-5.844-4.776-10.697-9.568-13.703l-0.089-0.052c-6.482-5.284-14.441-9.003-23.166-10.464l-0.293-0.040c-5.116-1.32-10.988-2.077-17.038-2.077-5.839 0-11.513 0.706-16.941 2.037l0.486-0.101c-13.502 3.349-25.344 8.956-35.724 16.459l0.3-0.206c-12.233 7.65-22.765 16.504-31.918 26.628l-0.114 0.128c-11.212 11.824-17.712 18.984-23.93 32.174-4.599 8.566-7.301 18.743-7.301 29.55 0 1.487 0.051 2.961 0.151 4.422l-0.011-0.197c-0.001 0.132-0.002 0.288-0.002 0.445 0 10.396 3.643 19.941 9.723 27.428l-0.063-0.080c5.7 8.010 13.703 14.050 23.038 17.193l0.326 0.095c7.943 3.431 17.191 5.426 26.905 5.426 1.605 0 3.198-0.054 4.776-0.162l-0.213 0.012c12.211-0.039 23.88-2.316 34.632-6.444l-0.668 0.225c12.172-3.861 22.762-9.146 32.328-15.802l-0.39 0.256c10.236-6.412 19.048-13.832 26.706-22.314l0.097-0.109c7.606-7.586 14.036-16.347 18.995-25.987l0.271-0.581c4.139-7.326 6.81-15.989 7.387-25.218l0.009-0.172c0.518-7.631-2.449-11.494-4.757-12.766s-5.276 1.036-6.736 6.406c-1.084 3.287-1.71 7.071-1.71 11.002 0 3.341 0.453 6.578 1.299 9.65l-0.060-0.254c2.336 10.456 6.396 19.681 11.911 27.843l-0.182-0.285c6.156 9.671 13.395 17.958 21.703 25.026l0.155 0.129c7.454 7.074 16.004 13.097 25.349 17.767l0.608 0.275c8.22 4.707 17.755 8.375 27.862 10.488l0.638 0.111c6.812 1.782 14.631 2.806 22.691 2.806 2.458 0 4.895-0.095 7.306-0.282l-0.319 0.020c10.389-0.229 20.232-2.284 29.313-5.853l-0.579 0.2c10.243-3.494 19.125-8.271 27.043-14.258l-0.239 0.173c9.083-6.073 16.907-13.059 23.656-20.991l0.133-0.16c7.032-7.971 13.395-16.854 18.808-26.35l0.412-0.784c4.99-7.972 10.113-17.456 14.664-27.261l0.693-1.662c5.37-11.164 7.631-17.523 11.541-26.756s5.182-13.567 8.056-19.219 3.344-7.584 6.218-8.95 3.58-0.329 8.056 2.261c5.394 3.6 10.016 7.069 14.442 10.765l-0.263-0.213c6.877 5.182 11.73 8.385 20.209 15.215s13.708 11.259 22.14 18.89c7.135 6.221 13.65 12.498 19.842 19.078l0.131 0.141c5.017 4.739 9.33 10.147 12.817 16.099l0.184 0.341c1.771 2.597 2.828 5.805 2.828 9.259 0 1.464-0.189 2.883-0.546 4.235l0.026-0.115c-1.083 4.757-2.921 6.595-7.772 10.552-4.727 3.637-10.158 6.703-15.999 8.943l-0.442 0.149c-6.166 2.887-13.487 5.528-21.070 7.519l-0.928 0.207c-9.186 2.449-14.98 2.874-24.072 4.475s-14.273 2.026-21.245 3.58-10.693 1.884-13.614 4.287-3.486 4.71-0.895 7.725c3.578 3.806 8.316 6.484 13.649 7.467l0.153 0.023c6.371 2.050 13.702 3.231 21.308 3.231 1.155 0 2.302-0.027 3.443-0.081l-0.161 0.006c10.318-0.269 20.131-2.024 29.364-5.058l-0.723 0.205c10.089-2.559 18.954-6.34 27.046-11.267l-0.431 0.243c8.042-4.277 14.799-9.92 20.205-16.689l0.098-0.128c5.312-5.835 9.033-13.205 10.423-21.371l0.035-0.25c0.71-2.947 1.116-6.329 1.116-9.808 0-5.25-0.927-10.283-2.626-14.944l0.097 0.303c-3.032-9.331-7.495-17.415-13.204-24.446l0.109 0.139c-6.271-8.762-12.923-16.46-20.21-23.508l-0.046-0.045c-7.195-7.733-14.873-14.786-23.074-21.201l-0.433-0.326c-7.029-5.87-14.962-11.078-23.46-15.32l-0.706-0.319c-6.465-3.73-14.051-6.331-22.134-7.32l-0.288-0.029c-1.807-0.345-3.886-0.544-6.012-0.544-4.937 0-9.623 1.067-13.842 2.985l0.21-0.085c-6.508 2.636-11.929 6.802-15.998 12.066l-0.065 0.088c-4.984 5.882-9.363 12.536-12.889 19.686l-0.253 0.57c-5.229 9.28-7.49 15.356-12.954 26.002s-8.244 16.817-14.32 27.086c-5.030 9.164-10.398 17.057-16.422 24.39l0.217-0.272c-5.528 6.845-11.806 12.763-18.791 17.752l-0.286 0.194c-5.952 4.868-12.866 8.856-20.373 11.617l-0.495 0.159c-6.506 2.716-14.063 4.306-21.987 4.334h-0.011c-1.619 0.133-3.504 0.209-5.407 0.209-6.368 0-12.538-0.85-18.401-2.442l0.491 0.113c-8.405-1.593-15.884-4.578-22.558-8.734l0.276 0.16c-7.386-4.175-13.62-9.478-18.701-15.754l-0.095-0.121c-5.215-6.586-9.907-14.021-13.767-21.936l-0.317-0.722c-4.994-8.95-6.642-14.65-11.023-22.14-2.736-6.005-6.329-11.137-10.693-15.498v0c-4.71-4.098-8.15-6.030-12.954-4.994s-7.019 4.193-11.070 10.317-4.24 11.824-9.186 20.209c-4.433 8.21-9.599 15.282-15.584 21.569l0.038-0.041c-6.441 7.025-13.821 13.041-21.978 17.892l-0.445 0.244c-7.67 4.942-16.51 9.091-25.896 11.996l-0.766 0.204c-7.956 2.836-17.173 4.797-26.742 5.491l-0.344 0.020c-2.698 0.379-5.814 0.595-8.981 0.595-5.096 0-10.061-0.56-14.838-1.621l0.453 0.084c-7.772-1.743-11.588-2.968-15.593-7.772-2.992-3.268-4.825-7.641-4.825-12.441 0-1.35 0.145-2.665 0.42-3.932l-0.022 0.122c1.060-8.751 4.078-16.63 8.602-23.42l-0.123 0.196c5.404-10.28 11.917-19.105 19.557-26.811l-0.008 0.008c8.016-8.603 17.232-15.944 27.413-21.792l0.568-0.3c8.18-5.123 17.751-8.932 27.989-10.849l0.511-0.079c3.65-0.75 7.844-1.18 12.139-1.18 4.119 0 8.147 0.396 12.046 1.15l-0.397-0.064c6.883 1.024 12.941 2.437 18.806 4.285l-0.858-0.233c6.218 1.319 9.374 3.58 13.189 2.402 3.365-0.563 5.9-3.454 5.9-6.937 0-0.429-0.038-0.848-0.112-1.255l0.006 0.043"></path>
<path fill="#fff" d="M2132.383 66.076c-2.402 3.769-3.533 7.349-3.109 17.429 0.708 12.024 2.589 23.275 5.545 34.082l-0.269-1.155c3.58 15.734 7.443 26.333 12.672 45.835s8.197 31.373 13.426 51.722 8.056 31.373 12.766 50.168 7.066 27.934 10.834 43.856 4.757 23.647 7.866 35.706c2.321 9.685 5.003 17.92 8.246 25.865l-0.427-1.182c1.902 4.817 4.379 8.975 7.412 12.657l-0.064-0.079c2.355 3.391 2.78 3.674 4.569 4.381 0.454 0.263 0.998 0.419 1.579 0.419 1.076 0 2.029-0.534 2.606-1.351l0.007-0.010c1.272-1.413 1.837-2.12 2.214-6.312 0.293-1.994 0.461-4.296 0.461-6.637 0-2.78-0.236-5.505-0.689-8.156l0.040 0.284c-1.258-9.675-3.072-18.254-5.489-26.578l0.307 1.236c-3.156-12.059-6.124-19.314-10.787-35s-7.443-24.637-12.389-43.291-7.772-29.583-12.484-50.027-7.113-32.409-11.070-52.1-5.276-30.808-8.573-46.447c-2.124-12.314-4.854-23.011-8.324-33.371l0.458 1.574c-3.25-9.374-5.088-12.295-8.573-15.027-0.965-1.071-2.358-1.741-3.906-1.741-2.178 0-4.046 1.326-4.842 3.214l-0.013 0.034"></path>
<path fill="#fff" d="M1991.675 95.236c3.58-0.235 3.863-2.637 11.023-6.359 6.859-4.141 14.971-8.275 23.378-11.849l1.307-0.494c13.126-6.376 28.695-12.271 44.835-16.8l2.036-0.488c18.579-5.121 41.699-9.801 65.279-13.043l2.978-0.335c29.064-4.522 46.495-6.359 77.019-9.092s47.295-3.816 75.7-4.71 43.055-0.801 66.373 0.188c18.282 0.672 35.53 2.395 52.439 5.126l-2.412-0.321c16.251 2.402 21.905 5.323 31.184 7.16 4.206 0.824 9.462 1.542 14.795 1.988l0.562 0.038c4.145 0.613 3.674 1.507 5.229 1.178s2.874-0.754 2.733-2.78c0.018-0.199 0.028-0.432 0.028-0.666 0-2.734-1.383-5.144-3.486-6.571l-0.028-0.018c-4.052-4.49-9.289-7.837-15.22-9.553l-0.231-0.057c-9.875-3.503-21.311-5.905-33.185-6.714l-0.402-0.022c-12.397-1.119-26.817-1.758-41.386-1.758-3.635 0-7.261 0.040-10.876 0.119l0.539-0.009c-23.741-0.094-38.392 0-67.080 1.178s-45.458 2.261-76.265 4.757-48.19 4.145-77.773 7.772-45.788 5.794-70.095 10.411-35.471 6.736-51.299 12.766c-11.026 3.582-20.427 9.565-27.963 17.363l-0.018 0.019c-4.076 3.45-6.647 8.569-6.647 14.289 0 0.675 0.036 1.342 0.105 1.998l-0.007-0.082c0.047 4.334 3.297 5.558 6.83 5.37"></path>
<path fill="#fff" d="M2081.225 253.654c3.439 2.402 6.218 3.486 15.875 3.533 11.529-0.042 22.75-1.259 33.58-3.534l-1.077 0.189c15.64-2.637 25.767-6.124 45.646-9.892s32.221-5.558 53.795-8.903 33.304-5.229 53.937-7.913 30.855-3.769 49.132-5.323 27.086-1.932 42.255-2.355 22.14-0.188 33.586 0.235 16.157-0.376 23.647 1.884c5.821 1.136 10.667 4.608 13.61 9.38l0.051 0.088c4.475 5.841 5.323 10.364 8.526 19.785s4.475 15.499 7.396 27.133 4.193 19.031 7.16 30.902 4.663 18.937 7.772 28.547c1.947 7.353 4.653 13.791 8.116 19.736l-0.202-0.375c3.439 5.37 5.511 7.113 9.139 7.396 0.261 0.028 0.564 0.043 0.87 0.043 3.82 0 7.066-2.453 8.25-5.871l0.018-0.061c2.234-4.592 3.541-9.989 3.541-15.692 0-0.96-0.037-1.911-0.11-2.852l0.008 0.125c-0.325-9.872-1.391-19.26-3.148-28.404l0.18 1.129c-1.507-11.447-3.769-18.465-4.71-29.913-0.511-4.154-0.802-8.965-0.802-13.843 0-4.732 0.274-9.4 0.807-13.99l-0.053 0.559c0.405-7.86 2.431-15.16 5.748-21.694l-0.141 0.307c2.474-5.956 6.656-10.79 11.93-14.012l0.129-0.073c5.731-3.887 12.537-6.657 19.876-7.829l0.285-0.038c8.597-2.116 18.575-3.504 28.814-3.856l0.25-0.007c7.622-0.674 16.489-1.058 25.446-1.058 4.42 0 8.819 0.094 13.193 0.279l-0.625-0.021c16.346 0.566 25.767 1.696 43.621 3.674s27.699 3.533 45.599 6.124 27.463 4.24 43.903 6.83 24.59 4.569 38.345 6.218c8.311 1.242 17.903 1.951 27.661 1.951 0.957 0 1.914-0.007 2.868-0.020l-0.145 0.002c10.127-0.141 14.556-0.188 20.209-2.733s7.772-5.37 8.103-10.127c0.019-0.287 0.029-0.623 0.029-0.96 0-5.17-2.495-9.757-6.346-12.624l-0.042-0.030c-5.167-4.568-11.747-7.647-19.006-8.51l-0.166-0.016c-4.287-0.85-9.215-1.336-14.257-1.336-4.767 0-9.433 0.435-13.959 1.267l0.472-0.072c-11.688 1.329-22.36 4.235-32.295 8.525l0.733-0.281c-11.636 4.452-21.694 10.22-30.68 17.288l0.248-0.188c-9.689 6.888-17.906 15.075-24.613 24.419l-0.212 0.311c-6.633 8.17-11.674 17.92-14.483 28.577l-0.12 0.535c-1.591 4.875-2.509 10.486-2.509 16.311 0 4.527 0.554 8.924 1.598 13.127l-0.078-0.373c1.639 9.501 5.934 17.799 12.082 24.331l-0.022-0.024c5.914 7.175 13.51 12.757 22.194 16.17l0.369 0.128c8.436 3.995 18.31 6.392 28.728 6.547l0.054 0.001c2.036 0.167 4.406 0.263 6.798 0.263 8.533 0 16.782-1.215 24.585-3.48l-0.622 0.154c11.070-2.575 20.838-6.666 29.679-12.115l-0.426 0.244c9.644-5.289 17.925-11.602 25.137-18.966l0.018-0.018c7.459-6.939 13.902-14.822 19.18-23.491l0.274-0.486c5.291-7.418 9.539-16.033 12.28-25.295l0.155-0.613c1.23-3.633 1.939-7.817 1.939-12.167 0-3.529-0.467-6.948-1.342-10.199l0.063 0.273c-1.602-5.605-5.841-7.302-8.762-5.936s-5.417 5.417-5.794 12.907c-0.125 1.361-0.197 2.943-0.197 4.542 0 7.178 1.44 14.021 4.046 20.253l-0.128-0.346c4.038 10.479 9.414 19.52 16.047 27.476l-0.125-0.155c6.441 8.352 13.812 15.544 22.071 21.598l0.304 0.213c6.674 5.423 14.363 9.963 22.679 13.266l0.592 0.207c6.817 3.376 14.753 5.703 23.129 6.526l0.283 0.022c2.187 0.342 4.71 0.539 7.279 0.539 5.412 0 10.62-0.869 15.494-2.475l-0.349 0.1c7.44-2.056 13.864-5.69 19.16-10.536l-0.035 0.032c5.988-4.768 10.946-10.537 14.686-17.092l0.152-0.29c4.355-6.679 7.938-14.391 10.349-22.605l0.156-0.619c2.74-7.473 4.385-16.1 4.522-25.093l0.001-0.061c0.004-0.161 0.006-0.35 0.006-0.541 0-5.686-2.070-10.888-5.497-14.895l0.026 0.031c-2.402-2.827-5.276-2.214-6.501 1.366-0.785 2.406-1.238 5.175-1.238 8.050 0 3.036 0.505 5.953 1.435 8.673l-0.056-0.188c2.263 8.738 5.892 16.394 10.697 23.156l-0.145-0.215c5.335 7.651 11.494 14.23 18.47 19.83l0.183 0.142c5.85 5.56 12.572 10.28 19.922 13.919l0.475 0.212c5.969 3.283 12.999 5.42 20.478 5.927l0.155 0.008c1.819 0.261 3.919 0.412 6.055 0.412 5.116 0 10.031-0.857 14.61-2.437l-0.314 0.094c7.685-2.145 14.383-5.574 20.2-10.085l-0.132 0.099c6.972-5.126 13.060-10.795 18.435-17.092l0.124-0.149c6.877-7.349 9.939-12.247 15.828-19.455s8.809-11.164 13.708-16.534c3.086-3.971 6.643-7.378 10.633-10.213l0.154-0.104c3.769-2.308 4.616-2.637 8.15-1.319s5.041 3.721 9.657 7.961 7.396 7.443 13.473 13.237 9.61 9.421 17.053 15.781c6.054 5.459 12.625 10.76 19.48 15.691l0.682 0.467c6.535 4.984 13.906 9.675 21.664 13.726l0.853 0.406c6.859 3.725 14.878 7.114 23.241 9.725l0.972 0.261c6.272 2.298 13.551 3.935 21.11 4.594l0.323 0.023c1.070 0.114 2.313 0.179 3.57 0.179 4.031 0 7.905-0.669 11.519-1.903l-0.251 0.074c3.17-0.363 5.923-1.909 7.852-4.176l0.014-0.017c0.676-0.872 1.083-1.983 1.083-3.187 0-1.178-0.39-2.264-1.046-3.138l0.010 0.013c-1.319-2.12-2.968-2.355-6.548-4.287-3.186-1.843-6.941-3.634-10.84-5.134l-0.559-0.189c-5.889-2.308-10.223-3.344-18.042-6.359-8.347-2.76-15.309-5.66-22.012-9.005l0.955 0.432c-7.285-3.696-13.554-7.751-19.35-12.373l0.224 0.173c-6.424-5.095-12.153-10.18-17.588-15.562l0.017 0.017c-6.877-6.312-9.892-10.127-16.77-15.922-5.184-4.884-10.992-9.207-17.264-12.811l-0.448-0.237c-5.507-3.494-12.027-5.929-19.024-6.851l-0.242-0.026c-1.805-0.308-3.884-0.485-6.005-0.485-4.801 0-9.392 0.904-13.611 2.55l0.254-0.087c-7.265 2.407-13.548 5.954-18.982 10.485l0.092-0.075c-6.588 5.092-12.414 10.545-17.691 16.496l-0.115 0.132c-6.877 7.066-10.317 11.682-16.44 18.702s-9.092 11.164-14.226 16.393c-3.207 3.861-6.992 7.106-11.248 9.642l-0.198 0.11c-2.175 1.424-4.839 2.271-7.702 2.271-1.093 0-2.158-0.123-3.181-0.357l0.095 0.018c-4.537-0.575-8.545-2.494-11.701-5.34l0.019 0.017c-4.776-3.762-8.823-8.183-12.073-13.168l-0.128-0.209c-4.663-6.548-6.265-11.777-11.023-19.502-3.857-7.286-8.126-13.569-12.991-19.332l0.131 0.159c-3.914-5.007-9.121-8.832-15.123-10.997l-0.234-0.074c-1.574-0.652-3.403-1.030-5.319-1.030-3.448 0-6.609 1.225-9.073 3.263l0.024-0.019c-5.049 3.713-8.807 8.92-10.64 14.964l-0.053 0.205c-3.062 7.631-2.733 14.415-4.522 22.893-1.068 7.418-2.597 13.988-4.623 20.335l0.242-0.879c-1.58 4.904-4.242 9.085-7.716 12.426l-0.010 0.009c-2.745 3.15-6.426 5.42-10.606 6.38l-0.134 0.026c-2.472 0.832-5.32 1.313-8.28 1.313-2.007 0-3.961-0.22-5.842-0.639l0.178 0.033c-6.229-0.739-11.886-2.606-16.963-5.397l0.24 0.121c-6.403-2.999-11.845-7.008-16.363-11.884l-0.031-0.034c-5.48-5.821-10.241-12.413-14.080-19.576l-0.24-0.492c-5.088-8.762-6.736-15.121-11.164-23.6-3.165-7.101-6.835-13.218-11.137-18.826l0.161 0.218c-4.616-5.558-7.537-8.291-12.247-8.997-0.523-0.085-1.124-0.134-1.738-0.134-4.128 0-7.741 2.204-9.727 5.5l-0.029 0.051c-3.91 4.569-4.475 9.704-7.913 17.429-2.9 8.349-6.033 15.395-9.67 22.128l0.39-0.789c-4.36 7.48-9.52 13.899-15.493 19.455l-0.052 0.047c-5.812 5.928-12.501 10.965-19.864 14.907l-0.439 0.214c-12.562 7.18-27.608 11.414-43.643 11.414-1.169 0-2.331-0.022-3.489-0.067l0.166 0.005c-0.142 0.001-0.31 0.002-0.479 0.002-7.454 0-14.61-1.278-21.26-3.625l0.447 0.137c-6.176-1.556-11.506-4.578-15.794-8.679l0.013 0.012c-4.103-3.413-6.872-8.306-7.482-13.849l-0.008-0.094c-0.331-1.707-0.522-3.671-0.522-5.679 0-4.705 1.043-9.168 2.91-13.167l-0.080 0.191c3.026-8.030 7.306-14.931 12.671-20.826l-0.046 0.052c5.925-7.336 12.721-13.638 20.312-18.869l0.321-0.209c13.843-10.364 31.149-16.812 49.931-17.426l0.143-0.004c9.421-0.801 14.367 0.848 21.857 0.66 0.595 0.021 1.294 0.033 1.995 0.033 4.856 0 9.579-0.579 14.1-1.671l-0.409 0.083c4.663-1.272 6.83-2.827 7.49-4.805s0.141-3.391-4.24-5.135c-5.221-1.81-11.278-3.083-17.557-3.565l-0.249-0.015c-9.421-1.319-15.828-1.649-29.3-2.921s-21.669-1.507-38.062-3.391-25.908-3.391-43.856-5.983-27.793-4.24-45.882-6.736-27.557-4.098-44.61-5.7c-10.325-1.428-22.255-2.244-34.376-2.244-2.24 0-4.474 0.028-6.701 0.083l0.33-0.006c-12.142 0.010-23.821 1.975-34.745 5.594l0.782-0.224c-10.099 2.76-18.88 7.403-26.358 13.568l0.119-0.095c-7.502 5.455-13.591 12.387-17.93 20.405l-0.159 0.321c-4.812 7.828-8.446 16.957-10.371 26.701l-0.086 0.526c-2.376 9.469-3.856 20.4-4.095 31.636l-0.003 0.16c-0.382 4.633-0.599 10.028-0.599 15.473 0 6.244 0.286 12.421 0.846 18.519l-0.058-0.783c0.456 10.396 2.283 20.201 5.307 29.465l-0.219-0.778c1.821 6.69 5.468 12.367 10.371 16.642l0.040 0.034c1.53 1.846 3.824 3.014 6.39 3.014 1.571 0 3.041-0.438 4.293-1.198l-0.037 0.021c3.156-1.79 4.616-4.522 5.182-10.834 0.014-0.565 0.022-1.229 0.022-1.896 0-6.697-0.798-13.207-2.304-19.442l0.115 0.564c-1.554-9.939-2.921-16.676-5.511-28.876s-3.721-19.737-7.49-32.032c-2.995-11.277-6.824-21.079-11.599-30.314l0.388 0.825c-4.038-9.1-9.465-16.864-16.101-23.403l-0.009-0.009c-5.947-6.243-13.397-11.003-21.771-13.699l-0.368-0.103c-8.405-3.222-18.127-5.089-28.285-5.089-0.125 0-0.249 0-0.374 0.001h0.019c-2.177-0.072-4.735-0.114-7.304-0.114-9.978 0-19.81 0.623-29.46 1.833l1.151-0.118c-15.687 1.272-24.401 2.496-42.867 4.71s-28.782 3.486-49.508 6.171-32.503 4.569-54.22 7.255-34.199 3.863-54.361 6.171-30.855 3.015-46.542 5.37c-11.982 1.348-22.811 3.6-33.253 6.747l1.315-0.34c-9.186 3.015-11.541 5.088-14.085 8.479-0.991 0.955-1.607 2.295-1.607 3.778 0 2.089 1.222 3.892 2.989 4.735l0.032 0.014"></path>
<path fill="#fff" d="M3477.46 227.699c-2.461-4.879-6.737-8.541-11.919-10.137l-0.14-0.037c-6.283-2.942-13.645-4.659-21.406-4.659-1.070 0-2.133 0.033-3.186 0.097l0.145-0.007c-11.551 0.027-22.541 2.397-32.53 6.66l0.545-0.206c-12.181 4.671-22.682 10.992-31.851 18.825l0.148-0.124c-10.067 7.278-18.484 16.129-25.065 26.282l-0.231 0.381c-7.396 11.588-10.834 18.843-11.777 31.325-0.282 1.867-0.443 4.022-0.443 6.215 0 9.241 2.861 17.814 7.746 24.88l-0.095-0.146c6.877 10.881 13.189 16.299 27.322 23.553s23.93 8.903 43.338 12.578c15.737 3.036 34.223 5.116 53.069 5.777l0.632 0.018c22.187 1.366 34.859 1.083 57.423 0.895s34.623-0.895 55.303-1.884 31.467-1.696 48.049-3.25c13.062-0.902 25.033-2.542 36.736-4.919l-1.782 0.302c7.662-1.524 14.474-4.003 20.75-7.356l-0.401 0.195c5.747-2.686 6.972-3.91 8.385-6.124s0.942-3.674-1.272-4.947-3.533-1.225-9.657-1.507c-2.956-0.319-6.384-0.502-9.856-0.502-3.93 0-7.806 0.233-11.614 0.688l0.461-0.045c-10.976 1.225-17.712 3.721-33.87 6.077s-26.662 3.91-46.918 5.464-32.315 2.261-54.408 2.355c-3.22 0.074-7.015 0.117-10.82 0.117-15.943 0-31.713-0.744-47.276-2.199l1.992 0.15c-18.76-1.279-36.157-4.058-52.993-8.257l2.072 0.438c-14.171-3.215-26.668-7.933-38.273-14.108l0.823 0.4c-11.682-5.747-16.016-8.526-20.916-15.027-2.899-3.088-4.679-7.256-4.679-11.84 0-1.984 0.333-3.89 0.947-5.664l-0.037 0.121c1.554-7.396 4.852-11.73 11.588-19.502 6.414-7.328 13.658-13.688 21.65-19.017l0.397-0.249c7.435-5.517 15.928-10.299 24.998-13.952l0.769-0.273c7.008-2.736 15.145-4.73 23.612-5.617l0.413-0.035c8.479-1.366 12.2-0.66 18.371-1.272s9.374 0.518 12.531-1.649c2.296-1.227 3.831-3.606 3.831-6.345 0-1.063-0.231-2.072-0.647-2.98l0.018 0.045"></path>
<path fill="#fff" d="M829.842 625.88c-1.27 2.788-2.010 6.046-2.010 9.478 0 1.624 0.166 3.209 0.482 4.739l-0.026-0.151c1.329 9.183 3.267 17.336 5.85 25.197l-0.296-1.041c2.987 11.306 5.582 19.021 9.421 32.188s6.124 20.661 9.765 33.591 5.464 19.559 8.451 31.024 4.088 16.958 6.359 26.248 3.015 13.614 4.928 20.096c1.29 4.72 2.87 8.797 4.808 12.662l-0.177-0.391c0.949 2.224 2.26 4.118 3.878 5.702l0.003 0.003c1.253 1.413 1.493 1.164 2.355 1.343 0.181 0.062 0.39 0.098 0.606 0.098 0.534 0 1.015-0.217 1.363-0.569v0c0.716-0.566 1.164-0.509 1.583-2.388 0.426-1.415 0.671-3.041 0.671-4.724 0-0.826-0.059-1.638-0.173-2.433l0.011 0.091c-0.613-4.844-1.512-9.152-2.719-13.33l0.151 0.611c-1.583-6.539-2.69-10.811-5.347-20.006s-4.71-14.513-8.032-25.857-5.224-17.976-8.72-30.935-5.464-20.604-8.748-33.832-5.078-21.141-7.645-32.367-2.925-16.487-5.107-23.68c-0.914-4.762-2.974-8.938-5.883-12.371l0.032 0.039c-2.327-2.271-4.358-2.059-5.851 0.942"></path>
<path fill="#fff" d="M769.626 651.708c2.092-2.181 1.672-6.152 4.032-11.306 1.993-5.51 4.607-10.281 7.835-14.563l-0.1 0.139c4.159-6.856 9.559-12.542 15.938-16.899l0.186-0.12c8.183-5.357 17.758-9.407 28.028-11.576l0.547-0.097c10.832-2.88 23.276-4.554 36.104-4.597h0.026c2.294-0.114 4.982-0.179 7.684-0.179 10.362 0 20.499 0.956 30.33 2.787l-1.017-0.157c12.084 1.817 22.968 5.061 33.143 9.606l-0.804-0.321c8.804 3.504 16.373 8.254 22.912 14.128l-0.070-0.062c5.151 3.723 9.076 8.856 11.237 14.832l0.069 0.218c1.050 2.381 1.662 5.158 1.662 8.077 0 2.671-0.512 5.221-1.442 7.559l0.048-0.138c-1.76 6.415-4.868 11.961-9.019 16.545l0.031-0.034c-5.076 6.531-10.81 12.192-17.201 17.033l-0.228 0.166c-6.9 5.613-14.62 10.817-22.79 15.302l-0.801 0.403c-7.159 4.253-15.53 8.31-24.246 11.669l-1.163 0.395c-9.676 3.769-15.168 4.447-22.992 6.84s-11.197 3.344-16.096 5.107c-3.166 0.9-5.934 2.174-8.449 3.804l0.12-0.073c-1.102 0.566-1.844 1.695-1.844 2.998 0 0.132 0.008 0.262 0.022 0.391l-0.001-0.016c-0.004 0.039-0.006 0.084-0.006 0.129 0 0.694 0.501 1.272 1.161 1.391l0.009 0.001c0.039-0.185 0.061-0.398 0.061-0.615 0-0.46-0.099-0.896-0.276-1.29l0.008 0.020c-0.24 0-1.413 0.805-0.942 1.79 0.306 1.583 1.526 2.815 3.079 3.133l0.025 0.004c1.591 0.38 3.417 0.597 5.294 0.597 1.57 0 3.104-0.152 4.588-0.443l-0.15 0.024c6.408-0.399 12.398-1.505 18.11-3.249l-0.553 0.145c9.362-2.887 17.207-5.989 24.76-9.604l-1.079 0.466c10.662-4.529 19.383-8.907 27.806-13.744l-1.261 0.668c9.725-5.199 18.047-10.603 25.87-16.624l-0.433 0.32c7.783-5.39 14.46-11.654 20.11-18.77l0.146-0.19c5.237-5.974 8.998-13.368 10.638-21.529l0.050-0.299c0.751-2.668 1.183-5.732 1.183-8.897 0-4.963-1.061-9.678-2.969-13.93l0.086 0.215c-3.115-7.95-8.31-14.517-14.921-19.226l-0.129-0.087c-7.455-6.211-16.194-11.196-25.724-14.485l-0.581-0.174c-10.004-4.196-21.648-7.433-33.776-9.166l-0.772-0.090c-9.716-1.78-20.896-2.799-32.314-2.799-2.245 0-4.481 0.039-6.707 0.117l0.322-0.009c-0.527-0.006-1.15-0.009-1.772-0.009-12.922 0-25.514 1.417-37.628 4.104l1.15-0.214c-12.186 2.058-23.108 5.923-33.052 11.353l0.548-0.274c-8.803 4.464-16.136 10.642-21.805 18.149l-0.113 0.157c-4.553 5.447-7.635 12.269-8.55 19.76l-0.018 0.184c-0.296 1.312-0.466 2.818-0.466 4.364 0 3.802 1.026 7.365 2.818 10.426l-0.053-0.098c1.761 3.048 4.419 2.628 6.539 0.471"></path>
<path fill="#fff" d="M1032.004 633.883c-1.514 2.48-2.41 5.481-2.41 8.691 0 0.589 0.030 1.171 0.089 1.743l-0.006-0.072c-0.048 1.082-0.075 2.351-0.075 3.627 0 5.483 0.506 10.848 1.473 16.051l-0.083-0.539c1.413 9.167 3.496 15.546 5.794 26.695s3.552 17.797 5.615 29.022 2.827 17.171 4.748 27.053c1.455 8.847 3.19 16.38 5.34 23.734l-0.351-1.402c1.663 6.191 3.99 11.612 6.97 16.599l-0.163-0.295c1.924 4.169 4.815 7.606 8.399 10.126l0.079 0.053c2.543 2.038 5.808 3.27 9.361 3.27 0.626 0 1.242-0.038 1.847-0.112l-0.073 0.007c4.792-0.296 9.126-2.048 12.62-4.812l-0.047 0.036c4.729-3.39 8.793-7.302 12.234-11.722l0.098-0.131c4.866-5.492 7.198-9.643 11.913-15.677s7.255-9.676 11.616-14.452c2.978-3.594 6.322-6.721 10.021-9.388l0.158-0.108c1.869-1.764 4.398-2.848 7.178-2.848 0.237 0 0.473 0.008 0.705 0.023l-0.032-0.002c2.827 0.24 3.731 1.253 6.241 3.91 2.297 2.747 4.404 5.816 6.207 9.075l0.152 0.299c2.897 4.48 4.358 7.612 8.121 13.076 3.461 5.338 6.978 9.967 10.804 14.319l-0.116-0.135c3.766 4.936 8.174 9.136 13.153 12.566l0.192 0.125c4.591 3.207 10.147 5.351 16.157 5.961l0.146 0.012c4.060-0.028 5.314-2.567 3.971-6.124s-6.482-6.929-10.721-11.527-6.567-6.539-10.51-11.494-5.554-8.032-9.256-13.317c-3.114-5.020-6.165-9.306-9.455-13.393l0.198 0.254c-3.080-4.008-6.747-7.381-10.909-10.049l-0.17-0.102c-3.723-2.642-8.276-4.354-13.204-4.706l-0.084-0.005c-0.947-0.116-2.045-0.182-3.157-0.182-4.162 0-8.108 0.924-11.642 2.579l0.168-0.071c-5.86 2.376-10.899 5.537-15.284 9.421l0.055-0.048c-5.442 4.433-10.282 9.187-14.649 14.353l-0.132 0.161c-4.139 4.702-8.197 9.841-11.975 15.19l-0.386 0.576c-4.121 5.652-5.766 8.72-8.272 12.484s-2.897 5.224-4.301 6.298-1.376 0.895-2.657-0.942c-1.484-2.353-2.735-5.067-3.612-7.943l-0.063-0.239c-1.7-4.626-2.657-7.735-4.71-14.928s-3.524-11.527-5.615-21.052-3.076-15.436-4.899-26.606-2.747-17.901-4.24-29.173-1.7-17.948-3.255-27.053c-1.020-6.922-2.615-13.114-4.78-19.032l0.211 0.66c-1.913-5.525-2.869-7.537-5.017-9.195-0.653-0.679-1.568-1.101-2.583-1.101-1.354 0-2.532 0.751-3.14 1.859l-0.009 0.019"></path>
<path fill="#fff" d="M1324.921 748.069c0.040-0.347 0.063-0.75 0.063-1.159 0-2.963-1.2-5.645-3.139-7.59v0c-2.787-3.761-6.575-6.635-10.971-8.247l-0.165-0.053c-4.454-1.997-9.653-3.16-15.124-3.16-1.025 0-2.041 0.041-3.045 0.121l0.132-0.008c-7.472 0.446-14.393 2.392-20.601 5.54l0.298-0.137c-7.492 3.103-13.932 7.197-19.534 12.21l0.065-0.057c-5.829 4.553-10.554 10.233-13.901 16.737l-0.132 0.282c-2.792 4.631-4.443 10.223-4.443 16.199 0 1.056 0.052 2.102 0.152 3.131l-0.010-0.13c0.242 6.613 2.965 12.546 7.259 16.934l-0.004-0.005c4.41 5.19 10.241 9.049 16.89 10.985l0.247 0.061c5.958 2.149 12.833 3.391 19.998 3.391 1.19 0 2.37-0.034 3.543-0.102l-0.162 0.007c17.694-0.792 34.23-4.935 49.257-11.805l-0.827 0.338c7.339-3.191 13.632-7.379 19.055-12.482l-0.034 0.031c4.921-4.3 8.802-9.661 11.302-15.736l0.102-0.28c2.073-4.148 3.285-9.038 3.285-14.211 0-0.979-0.043-1.948-0.128-2.905l0.009 0.124c-0.157-5.787-1.825-11.153-4.621-15.758l0.080 0.142c-2.432-4.841-5.857-8.858-10.030-11.91l-0.092-0.064c-3.432-2.677-7.635-4.522-12.224-5.166l-0.137-0.016c-0.888-0.239-1.908-0.376-2.96-0.376-2.188 0-4.237 0.595-5.994 1.632l0.055-0.030c-1.143 0.636-1.904 1.835-1.904 3.214 0 0.674 0.182 1.306 0.5 1.848l-0.009-0.017c0.744 2.092 2.686 3.076 5.314 5.285s4.71 3.194 7.791 5.761c2.921 2.014 5.428 4.348 7.559 6.998l0.053 0.068c2.49 3.027 4 6.942 4 11.21 0 3.164-0.83 6.135-2.284 8.706l0.046-0.088c-2.208 4.385-5.284 8.035-9.027 10.843l-0.079 0.057c-4.582 3.795-9.844 7.005-15.534 9.399l-0.413 0.154c-5.875 2.928-12.702 5.328-19.851 6.855l-0.574 0.102c-5.771 1.331-12.397 2.094-19.201 2.094-0.881 0-1.759-0.013-2.633-0.038l0.128 0.003c-0.355 0.006-0.776 0.010-1.197 0.010-6.287 0-12.388-0.799-18.206-2.301l0.504 0.11c-4.799-0.614-9.087-2.427-12.669-5.127l0.067 0.049c-2.508-1.593-4.149-4.358-4.149-7.505 0-0.365 0.022-0.725 0.065-1.078l-0.004 0.042c0.311-4.323 2.071-8.183 4.789-11.15l-0.012 0.014c3.416-4.471 7.399-8.283 11.892-11.413l0.172-0.113c4.584-3.588 9.788-6.752 15.347-9.269l0.48-0.194c4.229-2.22 9.165-3.748 14.396-4.287l0.174-0.014c0.582-0.046 1.261-0.072 1.945-0.072 3.437 0 6.719 0.663 9.725 1.868l-0.176-0.062c3.088 1.033 5.713 2.185 8.212 3.54l-0.269-0.133c2.925 1.136 4.362 2.747 6.661 2.388 2.428-0.147 4.403-1.919 4.86-4.235l0.006-0.033"></path>
<path fill="#fff" d="M1431.015 645.886c-1.854 2.277-2.978 5.214-2.978 8.413 0 0.255 0.007 0.509 0.021 0.76l-0.002-0.035c-0.24 2.050-0.376 4.424-0.376 6.83 0 3.93 0.365 7.774 1.063 11.502l-0.060-0.385c1.343 8.629 3.406 14.57 6.124 25.263s4.48 17.288 7.344 28.306 4.391 16.901 6.957 26.813 3.613 14.631 5.94 22.752 3.731 11.644 5.652 17.858 2.628 9.016 3.999 13.138c0.852 2.928 1.813 5.414 2.957 7.797l-0.131-0.302c0.984 1.941 1.074 1.969 2.002 2.209s1.376-0.268 2.657-1.017 3.552-2.059 3.769-2.78-0.42-1.554-2.718-0.805c-3.351 1.174-6.257 2.72-8.876 4.635l0.095-0.066c-1.851 1.583-1.583 2.718-0.471 3.463 1.049 0.396 2.263 0.624 3.53 0.624 0.867 0 1.709-0.107 2.514-0.309l-0.071 0.015c1.925-0.042 3.668-0.782 4.996-1.976l-0.007 0.006c1.467-1.281 2.402-3.139 2.449-5.216v-0.008c0.088-0.829 0.138-1.79 0.138-2.764 0-2.294-0.278-4.523-0.804-6.655l0.040 0.19c-0.973-5.595-2.063-10.265-3.379-14.837l0.242 0.983c-1.672-6.42-2.686-10.123-5.182-18.183s-4.362-12.393-7.136-22.097-4.301-15.546-6.746-26.483-3.82-17.495-5.525-28.216-1.343-16.958-2.958-25.381c-1.185-6.302-2.962-11.896-5.327-17.169l0.192 0.48c-1.913-4.899-2.421-6.331-4.419-7.791-0.664-0.645-1.572-1.043-2.572-1.043-1.221 0-2.302 0.592-2.975 1.504l-0.007 0.010"></path>
<path fill="#fff" d="M1407.664 774.072c2.209 1.286 4.032 0.984 9.374 0.942 6.164-0.017 12.203-0.495 18.101-1.399l-0.672 0.085c8.629-1.164 14.391-2.869 25.711-4.48s18.451-2.271 30.817-3.585 19.291-1.913 31.024-2.897 17.674-1.315 27.708-1.913 14.872-0.471 22.423-1.074c5.746-0.382 11.025-1.093 16.185-2.133l-0.777 0.13c2.81-0.236 5.366-1.151 7.558-2.577l-0.063 0.038c1.583-1.225 1.413-2.148 0.358-3.524-1.304-1.776-3.259-3.007-5.508-3.339l-0.045-0.006c-0.743-0.151-1.598-0.237-2.472-0.237-2.209 0-4.289 0.552-6.11 1.525l0.070-0.034c-3.115 1.658-5.677 3.981-7.565 6.794l-0.047 0.074c-2.298 2.62-3.986 5.834-4.809 9.378l-0.029 0.147c-0.416 1.384-0.655 2.973-0.655 4.619 0 2.163 0.414 4.23 1.166 6.125l-0.039-0.112c1.218 3.719 3.551 6.795 6.6 8.913l0.057 0.037c3.412 2.771 7.553 4.779 12.090 5.702l0.181 0.031c3.789 0.932 8.14 1.466 12.615 1.466 1.298 0 2.585-0.045 3.86-0.133l-0.172 0.010c6.175-0.068 12.137-0.837 17.855-2.231l-0.539 0.111c6.285-1.15 11.881-2.947 17.132-5.364l-0.443 0.182c5.021-1.989 9.317-4.79 12.943-8.284l-0.012 0.012c3.486-2.839 6.084-6.646 7.393-11.010l0.041-0.159c0.708-1.833 1.118-3.954 1.118-6.171 0-2.416-0.488-4.718-1.369-6.814l0.043 0.116c-1.688-4.688-4.763-8.535-8.726-11.146l-0.083-0.052c-4.348-3.26-9.564-5.615-15.235-6.682l-0.23-0.036c-3.748-0.899-8.051-1.416-12.475-1.416-2.077 0-4.127 0.114-6.146 0.335l0.249-0.022c-6.225 0.298-12.064 1.588-17.482 3.714l0.372-0.129c-4.659 1.571-8.658 4.011-11.991 7.151l0.016-0.015c-2.35 2.006-4.037 4.723-4.73 7.818l-0.018 0.096c-0.206 0.534-0.326 1.151-0.326 1.796 0 1.253 0.451 2.4 1.2 3.289l-0.006-0.008c0.834 1.164 2.181 0.805 3.297 0.688s0.688-0.688 2.148-1.225 2.299-0.509 5.257-1.413c2.637-1.095 5.818-2.112 9.096-2.874l0.429-0.084c3.939-0.798 8.467-1.255 13.102-1.255 0.15 0 0.3 0 0.45 0.001h-0.023c0.462-0.009 1.006-0.014 1.552-0.014 4.499 0 8.918 0.347 13.23 1.017l-0.48-0.061c4.227 0.516 8.051 1.407 11.707 2.659l-0.403-0.119c2.311 0.452 4.323 1.518 5.918 3.020l-0.006-0.006c1.164 1.343 1.045 2.059 0 3.731-1.314 1.989-3.102 3.566-5.208 4.592l-0.077 0.034c-2.903 1.781-6.255 3.26-9.808 4.261l-0.282 0.068c-4.006 1.284-8.776 2.34-13.677 2.971l-0.417 0.044c-4.005 0.632-8.625 0.992-13.329 0.992-0.427 0-0.852-0.003-1.278-0.009l0.064 0.001c-4.612-0.083-9.057-0.439-13.419-1.051l0.578 0.066c-4.362-0.42-6.392-0.867-8.837-1.164s-3.165-0.089-3.524-0.268 0.42-0.089 1.733-0.627 2.6-1.102 4.776-2.031c2.328-0.658 4.362-1.574 6.222-2.743l-0.098 0.058c2.175-1.39 3.911-3.289 5.069-5.535l0.037-0.080c1.116-1.906 1.776-4.196 1.776-6.641 0-0.373-0.015-0.744-0.046-1.109l0.003 0.048c0.008-0.117 0.013-0.253 0.013-0.392 0-2.185-1.183-4.092-2.943-5.119l-0.028-0.015c-2.274-1.399-5.029-2.227-7.977-2.227-0.261 0-0.521 0.006-0.779 0.019l0.036-0.001c-2.164-0.184-4.682-0.288-7.226-0.288-3.018 0-6.001 0.147-8.943 0.437l0.372-0.030c-7.645 0.537-12.422 1.376-22.423 2.449s-15.917 1.823-27.68 2.897-18.603 1.672-31.052 2.506-19.559 1.074-31.142 1.7-17.797 0.089-26.723 1.413c-6.65 0.82-12.696 2.661-18.237 5.373l0.337-0.149c-3.49 1.067-6.347 3.315-8.175 6.269l-0.036 0.062c-0.397 0.579-0.633 1.295-0.633 2.065 0 1.548 0.955 2.874 2.309 3.419l0.025 0.009"></path>
<path fill="#fff" d="M1793.951 744.423c-1.56-3.418-4.235-6.102-7.551-7.634l-0.095-0.039c-4.43-2.894-9.691-4.914-15.349-5.683l-0.196-0.022c-2.953-0.55-6.35-0.863-9.821-0.863-3.975 0-7.854 0.413-11.597 1.197l0.366-0.064c-7.602 1.446-14.372 4.066-20.473 7.695l0.288-0.158c-6.185 2.942-11.43 6.879-15.757 11.663l-0.038 0.043c-3.88 3.717-6.584 8.633-7.516 14.152l-0.021 0.15c-0.238 1.056-0.375 2.27-0.375 3.515 0 3.836 1.299 7.37 3.48 10.184l-0.028-0.038c2.902 4.277 7.175 7.435 12.178 8.861l0.154 0.038c4.408 1.602 9.496 2.528 14.8 2.528 1.244 0 2.475-0.051 3.694-0.151l-0.16 0.011c7.378-0.271 14.372-1.442 21.026-3.408l-0.6 0.152c7.509-1.903 13.883-4.078 20.025-6.695l-0.886 0.335c6.986-2.628 10.571-4.358 15.795-6.807s7.537-4.060 10.42-5.492 3.015-2.539 3.999-1.79 0.151 1.611 0.867 5.375c0.587 5.116 1.501 9.704 2.751 14.152l-0.15-0.627c1.913 6.628 3.552 10.778 6.986 19.676s6.001 14.363 10.213 24.816 6.746 16.6 10.811 27.411 6.392 16.572 9.525 26.667c2.225 6.417 4.372 14.426 6.003 22.621l0.205 1.239c1.312 5.516 2.064 11.851 2.064 18.359 0 0.327-0.002 0.654-0.006 0.98v-0.050c0.045 0.601 0.070 1.301 0.070 2.008 0 4.363-0.972 8.498-2.712 12.201l0.074-0.176c-1.678 4.021-4.529 7.276-8.121 9.414l-0.090 0.050c-3.802 2.766-8.318 4.805-13.211 5.812l-0.223 0.038c-5.514 1.648-11.863 2.644-18.428 2.746l-0.056 0.001c-1.682 0.087-3.652 0.137-5.633 0.137-14.344 0-28.079-2.601-40.762-7.358l0.801 0.263c-7.905-2.696-14.765-6.224-20.99-10.595l0.262 0.175c-5.878-3.746-10.829-8.366-14.824-13.74l-0.104-0.147c-3.809-4.495-6.605-9.97-7.961-15.99l-0.048-0.252c-0.995-3.254-1.569-6.995-1.569-10.869 0-2.748 0.288-5.428 0.836-8.013l-0.045 0.251c1.155-8.095 3.637-15.399 7.236-22.009l-0.169 0.34c4.183-8.863 9.106-16.502 14.885-23.399l-0.136 0.166c6.387-8.038 13.29-15.148 20.832-21.524l0.22-0.182c7.517-6.844 15.757-13.214 24.487-18.894l0.743-0.453c7.666-5.29 16.443-10.311 25.637-14.583l1.119-0.467c7.165-3.623 15.585-6.891 24.343-9.345l1.005-0.24c6.26-1.928 13.554-3.307 21.078-3.862l0.332-0.020c2.195-0.433 4.719-0.681 7.302-0.681 2.903 0 5.733 0.313 8.457 0.907l-0.261-0.048c4.274 0.895 7.939 3.073 10.673 6.106l0.016 0.018c3.020 3.107 5.557 6.704 7.478 10.657l0.106 0.243c2.747 4.71 3.731 8.15 6.208 12.601 1.703 3.674 3.76 6.839 6.197 9.668l-0.045-0.053c2.416 2.388 4.212 2.958 6.034 2.416s2.954-1.823 3.194-5.078c0.014-0.319 0.022-0.695 0.022-1.072 0-3.66-0.766-7.139-2.146-10.291l0.064 0.165c-2.377-5.876-4.84-10.805-7.633-15.517l0.289 0.527c-3.222-6.091-5.851-9.793-8.837-15.588-2.127-3.775-4.142-8.21-5.783-12.822l-0.19-0.613c-1.233-2.763-1.951-5.986-1.951-9.377 0-0.24 0.004-0.481 0.011-0.719l-0.001 0.035c-0.015-0.164-0.023-0.354-0.023-0.547 0-2.325 1.229-4.363 3.071-5.5l0.028-0.016c2.659-1.778 5.818-3.033 9.221-3.537l0.125-0.015c4.268-1.183 9.51-2.229 14.863-2.923l0.602-0.064c7.316-1.102 11.824-1.823 21.113-2.449s14.989-0.566 25.319-0.655 15.945-0.179 26.337 0.329 15.917 1.074 25.65 2.271 14.811 2.539 23.111 3.731 12.182 1.413 18.334 2.148c3.448 0.665 7.713 1.227 12.043 1.558l0.408 0.025c3.674 0.028 4.866-0.358 5.912-1.522s0.744-2.78-0.744-4.391c-1.644-1.968-3.967-3.319-6.605-3.696l-0.056-0.007c-1.34-0.232-2.883-0.365-4.456-0.365-2.384 0-4.698 0.305-6.903 0.878l0.19-0.042c-5.286 0.93-9.986 2.339-14.437 4.224l0.433-0.162c-5.739 1.969-10.701 4.391-15.299 7.334l0.281-0.168c-5.057 2.992-9.359 6.648-12.959 10.915l-0.061 0.075c-3.513 3.784-6.196 8.389-7.728 13.492l-0.063 0.244c-0.962 2.545-1.52 5.488-1.52 8.561 0 2.101 0.26 4.141 0.751 6.090l-0.037-0.171c0.905 4.995 3.268 9.328 6.627 12.661l0.002 0.001c3.338 3.743 7.57 6.619 12.364 8.298l0.208 0.063c4.486 1.948 9.711 3.080 15.2 3.080 0.189 0 0.377-0.001 0.567-0.004h-0.028c0.743 0.036 1.614 0.057 2.49 0.057 5.194 0 10.218-0.73 14.973-2.092l-0.383 0.094c6.21-1.426 11.689-3.575 16.736-6.403l-0.314 0.162c5.701-2.791 10.61-6.108 14.996-10.003l-0.067 0.059c4.277-3.577 7.95-7.676 10.978-12.241l0.13-0.209c2.028-2.912 3.527-6.353 4.272-10.066l0.029-0.174c0.655-2.628-0.566-3.585-0.942-3.015-0.751 1.187-1.198 2.631-1.198 4.181 0 0.646 0.077 1.274 0.223 1.874l-0.011-0.054c0.488 4.311 1.857 8.218 3.926 11.656l-0.072-0.13c2.792 4.69 6.144 8.699 10.037 12.104l0.057 0.049c7.761 7.096 17.161 12.54 27.556 15.691l0.509 0.132c4.425 1.532 9.541 2.545 14.852 2.821l0.137 0.006c1.292 0.144 2.79 0.226 4.307 0.226 3.518 0 6.931-0.442 10.19-1.272l-0.284 0.061c4.422-1.028 8.312-2.821 11.716-5.249l-0.1 0.068c2.729-1.656 4.925-3.94 6.431-6.659l0.046-0.091c1.069-1.404 1.713-3.182 1.713-5.111 0-0.525-0.048-1.037-0.139-1.536l0.008 0.052c-0.537-1.753-2.092-3.026-3.959-3.137l-0.012-0.001c-1.79-0.296-2.827 0.895-5.017 1.733s-3.015 1.315-5.823 2.416c-2.324 1.274-5.022 2.374-7.849 3.162l-0.272 0.065c-1.895 0.489-4.069 0.769-6.309 0.769-1.229 0-2.437-0.084-3.621-0.247l0.137 0.015c-4.224-0.354-8.129-1.266-11.793-2.666l0.293 0.098c-4.206-1.233-7.875-3.002-11.179-5.267l0.132 0.086c-3.478-2.429-6.46-5.251-8.982-8.452l-0.067-0.088c-3.255-3.769-4.24-6.449-7.108-10.241-2.147-3.261-4.571-6.084-7.308-8.569l-0.036-0.033c-2.342-2.358-5.372-4.031-8.763-4.693l-0.107-0.017c-0.739-0.155-1.588-0.243-2.458-0.243-2.526 0-4.878 0.748-6.846 2.035l0.048-0.029c-3.318 2.123-6.147 4.657-8.517 7.58l-0.051 0.065c-3.613 3.585-5.224 6.595-9.421 10.303-3.367 3.154-7.197 5.879-11.361 8.048l-0.284 0.134c-3.713 2.067-8.017 3.695-12.567 4.657l-0.303 0.054c-3.519 0.885-7.558 1.393-11.715 1.393-0.459 0-0.916-0.006-1.372-0.018l0.067 0.001c-0.225 0.005-0.492 0.008-0.758 0.008-3.657 0-7.189-0.538-10.519-1.54l0.258 0.067c-3.108-0.7-5.836-2.010-8.17-3.805l0.049 0.036c-1.984-1.146-3.417-3.058-3.9-5.322l-0.009-0.053c-0.127-0.574-0.199-1.233-0.199-1.909 0-1.925 0.589-3.711 1.595-5.19l-0.021 0.032c1.604-3.142 3.73-5.792 6.292-7.939l0.039-0.032c2.972-2.807 6.35-5.232 10.025-7.168l0.248-0.119c3.469-1.992 7.48-3.656 11.71-4.785l0.353-0.080c3.246-0.73 7.288-1.373 11.397-1.786l0.455-0.037c3.691-0.327 7.095-1.164 10.276-2.441l-0.241 0.086c2.825-1.168 5.113-3.158 6.622-5.671l0.035-0.062c0.984-1.256 1.578-2.858 1.578-4.599 0-0.91-0.162-1.782-0.46-2.589l0.017 0.052c-0.942-2.539-2.059-3.642-5.823-5.525-3.743-1.788-8.087-3.171-12.642-3.931l-0.288-0.040c-5.112-1.249-11.489-2.371-17.98-3.121l-0.773-0.073c-8.479-1.074-13.708-1.413-23.708-2.238s-15.706-1.343-26.304-1.941-16.242-0.598-26.784-1.017-16.152-1.017-26.007-1.074c-2.098-0.122-4.553-0.192-7.023-0.192-5.715 0-11.342 0.372-16.859 1.095l0.65-0.069c-6.803 0.924-12.958 2.951-18.546 5.906l0.301-0.145c-4.98 2.017-9.174 5.068-12.476 8.908l-0.036 0.042c-3.196 3.354-5.454 7.63-6.336 12.388l-0.023 0.151c-0.595 2.483-0.935 5.334-0.935 8.264 0 2.42 0.232 4.785 0.676 7.075l-0.038-0.232c0.852 6.315 2.263 12 4.217 17.427l-0.184-0.586c1.997 7.126 4.244 13.164 6.918 18.966l-0.323-0.783c2.436 5.883 5.362 10.958 8.849 15.588l-0.129-0.179c2.394 3.563 5.648 6.377 9.473 8.183l0.142 0.060c1.127 0.709 2.498 1.129 3.968 1.129 1.623 0 3.125-0.513 4.356-1.385l-0.023 0.016c2.289-1.562 3.772-4.157 3.772-7.1 0-0.296-0.015-0.59-0.044-0.878l0.003 0.036c-0.186-4.609-1.459-8.883-3.568-12.624l0.072 0.14c-2.283-5.305-5.066-9.88-8.389-14.001l0.088 0.113c-3.333-4.837-7.287-8.952-11.807-12.353l-0.134-0.097c-4.44-3.626-9.773-6.34-15.612-7.768l-0.273-0.056c-4.029-1.259-8.662-1.985-13.465-1.985-2.229 0-4.422 0.156-6.567 0.459l0.247-0.028c-8.756 0.93-16.773 2.943-24.303 5.922l0.623-0.217c-10.335 3.416-19.11 7.215-27.475 11.679l0.931-0.454c-20.648 10.467-38.451 22.49-54.562 36.416l0.337-0.285c-8.424 6.863-15.913 14.228-22.669 22.232l-0.206 0.251c-6.487 7.218-12.158 15.377-16.74 24.194l-0.307 0.65c-4.332 7.219-7.516 15.655-9.045 24.656l-0.060 0.429c-0.718 3.198-1.128 6.872-1.128 10.641 0 4.787 0.663 9.42 1.903 13.811l-0.086-0.357c1.796 8.194 5.394 15.359 10.368 21.34l-0.065-0.081c5.010 6.671 11.086 12.232 18.026 16.529l0.279 0.161c6.765 4.73 14.535 8.75 22.822 11.675l0.68 0.209c7.333 3.038 15.936 5.546 24.864 7.115l0.757 0.11c6.847 1.633 14.707 2.569 22.787 2.569 0.871 0 1.739-0.011 2.604-0.032l-0.128 0.003c0.261 0.004 0.571 0.006 0.88 0.006 7.736 0 15.153-1.37 22.021-3.879l-0.446 0.142c6.703-2.055 12.472-5.442 17.255-9.88l-0.028 0.026c4.85-3.821 8.667-8.74 11.106-14.393l0.091-0.238c2.814-5.477 4.468-11.949 4.48-18.806v-0.004c0.045-0.97 0.071-2.107 0.071-3.249 0-6.776-0.909-13.34-2.613-19.575l0.121 0.52c-2.3-9.916-4.874-18.256-7.956-26.345l0.462 1.379c-3.435-10.42-5.794-16.152-9.676-27.143s-6.331-17.138-9.793-27.793-4.866-16.304-7.537-25.381-3.104-13.289-5.652-20.068c-1.67-5.28-4.048-9.87-7.075-13.951l0.089 0.126c-2.13-3.263-5.135-5.797-8.682-7.297l-0.126-0.047c-2.342-1.204-5.111-1.909-8.044-1.909-0.881 0-1.748 0.064-2.595 0.187l0.096-0.011c-4.815 0.438-9.253 1.464-13.436 3.014l0.359-0.116c-5.794 1.644-9.106 3.297-15.828 5.285-4.551 1.516-10.523 3.103-16.606 4.387l-1.192 0.21c-4.834 1.038-10.879 1.957-17.021 2.547l-0.687 0.053c-4.216 0.58-9.105 0.921-14.070 0.942h-0.024c-4.329-0.028-6.001-0.061-7.612-1.074s-1.7-1.884-0.42-4.032c1.796-2.696 4.104-4.907 6.801-6.542l0.095-0.054c3.811-2.824 8.153-5.316 12.773-7.277l0.417-0.157c4.658-2.197 10.066-3.902 15.732-4.844l0.364-0.050c2.984-0.445 6.428-0.698 9.931-0.698 2.212 0 4.401 0.101 6.561 0.299l-0.277-0.021c5.794 0.207 8.418 1.136 12.841 1.493s6.957 1.343 9.346 0.24c1.778-0.553 3.048-2.184 3.048-4.11 0-0.596-0.121-1.163-0.34-1.678l0.011 0.028"></path>
<path fill="#fff" d="M2194.794 768.999c-2.208 1.787-3.635 4.465-3.731 7.479v0.016c-0.567 2.438-0.892 5.238-0.892 8.113 0 2.569 0.259 5.079 0.754 7.503l-0.041-0.24c1.855 8.413 4.135 15.668 6.963 22.642l-0.335-0.935c3.222 9.374 5.851 14.961 9.464 25.173s5.582 15.945 8.658 25.979 4.447 15.375 6.779 24.184 2.958 13.227 4.956 19.888c1.129 5.022 2.869 9.459 5.173 13.534l-0.127-0.244c2.238 3.463 4.212 4.48 6.152 3.999s3.344-2.059 3.552-6.359c0.017-0.418 0.026-0.909 0.026-1.402 0-4.945-0.952-9.666-2.684-13.993l0.090 0.254c-2.416-7.377-5.761-12.003-9.554-21.796-3.065-7.12-6.25-16.131-8.914-25.364l-0.433-1.751c-2.514-8.045-4.567-17.617-5.77-27.453l-0.081-0.81c-0.866-5.294-1.362-11.396-1.362-17.613 0-3.269 0.137-6.507 0.406-9.707l-0.028 0.419c0.404-8.493 2.144-16.462 5.014-23.868l-0.176 0.517c2.271-7.025 5.697-13.101 10.1-18.325l-0.066 0.081c3.77-5.087 8.553-9.204 14.076-12.106l0.226-0.108c5.094-3.049 11.112-5.124 17.544-5.806l0.191-0.016c2.468-0.396 5.314-0.622 8.213-0.622 3.846 0 7.599 0.398 11.22 1.155l-0.354-0.062c6.298 0.871 11.988 2.794 17.13 5.594l-0.261-0.13c4.767 2.244 8.768 5.393 11.927 9.257l0.048 0.060c2.862 2.778 4.733 6.562 5.042 10.779l0.003 0.055c0.080 0.613 0.126 1.321 0.126 2.040 0 3.642-1.178 7.009-3.174 9.741l0.033-0.047c-2.865 4.671-6.48 8.586-10.721 11.697l-0.113 0.079c-5.038 4.396-10.711 8.286-16.808 11.477l-0.481 0.229c-6.162 3.483-13.316 6.566-20.81 8.871l-0.78 0.206c-5.915 1.815-13.038 3.362-20.341 4.341l-0.711 0.078c-4.485 0.983-9.935 1.787-15.485 2.24l-0.461 0.030c-0.62 0.068-1.34 0.106-2.068 0.106-2.030 0-3.99-0.3-5.838-0.859l0.142 0.037c-2.148-0.387-2.12-0.598-2.869-1.197s0.151-1.413-0.834-1.823-3.015-1.164-4.088-0.207c-0.908 0.845-1.474 2.046-1.474 3.379 0 0.566 0.102 1.107 0.288 1.608l-0.010-0.032c0.639 2.827 2.297 5.187 4.559 6.726l0.038 0.025c3.063 2.617 6.913 4.398 11.151 4.945l0.107 0.011c3.218 0.652 6.918 1.024 10.705 1.024 2.987 0 5.92-0.232 8.781-0.679l-0.318 0.041c8.699-1.152 16.552-3.131 24.022-5.9l-0.761 0.247c9.293-2.875 17.249-6.207 24.804-10.197l-0.78 0.375c7.964-3.52 14.819-7.925 20.879-13.219l-0.095 0.081c5.548-4.648 9.92-10.514 12.73-17.198l0.111-0.297c2.254-4.343 3.576-9.481 3.576-14.928 0-1.507-0.101-2.99-0.297-4.443l0.019 0.169c-0.499-6.83-3.064-12.98-7.066-17.918l0.047 0.060c-4.018-5.867-9.286-10.591-15.444-13.863l-0.232-0.113c-6.151-3.814-13.412-6.482-21.19-7.507l-0.276-0.030c-3.579-0.746-7.691-1.173-11.904-1.173-4.263 0-8.424 0.438-12.44 1.27l0.396-0.068c-8.454 1.181-16.047 4.092-22.675 8.371l0.219-0.132c-7.132 4.108-13.051 9.542-17.592 16.012l-0.115 0.173c-4.965 6.331-8.829 13.794-11.147 21.91l-0.111 0.457c-2.776 7.866-4.504 16.944-4.773 26.388l-0.003 0.128c-0.179 2.684-0.281 5.818-0.281 8.976 0 7.093 0.515 14.067 1.509 20.884l-0.093-0.775c1.347 11.538 3.182 21.665 5.587 31.568l-0.362-1.768c2.421 11.735 4.24 18.334 6.896 28.876 1.75 9.182 4.002 17.166 6.854 24.858l-0.344-1.059c1.99 5.348 5.208 9.845 9.326 13.306l0.048 0.039c3.496 3.076 5.851 3.043 8.15 2.031s2.958-2.827 3.297-7.108c0.017-0.48 0.027-1.043 0.027-1.61 0-4.475-0.621-8.805-1.78-12.908l0.080 0.333c-1.413-6.868-2.69-11.259-5.314-20.157s-4.598-14.184-7.763-24.274-5.017-15.917-8.009-26.304-4.541-16.304-6.868-25.65-2.827-14.273-4.748-21.019c-1.353-4.909-2.959-9.125-4.908-13.143l0.198 0.453c-1.611-3.769-1.554-4.837-3.344-6.063-0.752-0.692-1.76-1.116-2.867-1.116-1.010 0-1.939 0.353-2.667 0.943l0.008-0.006"></path>
<path fill="#fff" d="M2373.261 664.399c-1.142 2.193-1.811 4.789-1.811 7.542 0 0.829 0.061 1.644 0.178 2.44l-0.011-0.090c-0.042 0.917-0.066 1.992-0.066 3.073 0 5.224 0.558 10.318 1.616 15.225l-0.085-0.473c1.611 8.328 4.088 13.976 6.689 23.86s3.999 15.767 6.387 25.56 3.076 15.074 5.492 23.501c1.922 7.202 4.196 13.377 6.957 19.279l-0.296-0.705c1.939 4.942 4.561 9.195 7.805 12.89l-0.042-0.049c2.398 3.185 5.709 5.567 9.541 6.77l0.135 0.036c1.918 0.752 4.137 1.188 6.46 1.188 1.971 0 3.867-0.313 5.643-0.894l-0.128 0.036c4.926-1.359 9.19-3.709 12.755-6.838l-0.036 0.031c4.334-3.696 8.195-7.695 11.641-12.039l0.135-0.176c4.598-5.135 6.957-8.629 11.197-13.468 3.193-3.933 6.466-7.461 9.954-10.763l0.051-0.048c2.038-2.311 4.679-4.045 7.678-4.958l0.118-0.031c0.557-0.181 1.197-0.285 1.86-0.285 1.783 0 3.39 0.751 4.524 1.955l0.003 0.003c2.396 2.193 4.479 4.668 6.21 7.389l0.088 0.148c2.897 3.642 4.541 6.124 8.060 10.632s5.464 7.164 9.558 11.885c3.497 4.249 7.090 8.069 10.919 11.641l0.070 0.065c3.676 3.552 7.741 6.744 12.113 9.495l0.308 0.181c3.848 2.635 8.279 4.844 13.005 6.403l0.372 0.106c4.109 1.567 8.861 2.476 13.825 2.478h0.001c0.597 0.035 1.294 0.054 1.996 0.054 4.213 0 8.259-0.71 12.026-2.017l-0.257 0.078c4.916-1.412 9.201-3.568 12.976-6.374l-0.107 0.076c4.267-2.971 7.933-6.402 11.057-10.29l0.079-0.102c3.351-3.671 6.263-7.832 8.596-12.341l0.151-0.321c2.188-3.658 3.736-7.954 4.37-12.541l0.020-0.178c0.106-0.484 0.167-1.038 0.167-1.607 0-2.298-0.994-4.365-2.577-5.792l-0.007-0.006c-1.413-0.984-3.406 0-4.626 2.449-1.152 2.091-1.828 4.582-1.828 7.232 0 0.905 0.079 1.791 0.23 2.654l-0.013-0.091c0.508 5.199 2.141 9.927 4.652 14.063l-0.083-0.147c2.923 5.086 6.532 9.408 10.766 13.020l0.068 0.057c4.038 3.893 8.7 7.176 13.811 9.68l0.32 0.141c4.876 2.662 10.529 4.767 16.496 6.020l0.406 0.071c4.868 1.308 10.459 2.059 16.223 2.059 0.679 0 1.356-0.010 2.030-0.031l-0.098 0.002c0.030 0 0.065 0 0.1 0 6.363 0 12.518-0.894 18.344-2.564l-0.469 0.115c6.083-1.472 11.419-3.511 16.405-6.126l-0.389 0.185c5.265-2.347 9.804-5.114 13.933-8.375l-0.136 0.104c3.756-2.768 6.925-6.070 9.464-9.832l0.089-0.14c1.077-1.485 1.724-3.344 1.724-5.354 0-0.621-0.062-1.227-0.179-1.813l0.010 0.059c-0.207-0.895-1.761-0.895-2.478 2.628-0.915 3.175-1.441 6.823-1.441 10.593 0 1.549 0.089 3.077 0.261 4.58l-0.017-0.183c0.716 8.093 2.827 14.184 4.776 25.471s3.076 18.451 4.928 30.963 3.015 19.314 4.301 31.533c1.191 8.724 1.956 18.963 2.117 29.35l0.003 0.209c0.057 1.445 0.090 3.142 0.090 4.846 0 7.559-0.641 14.968-1.871 22.175l0.109-0.774c-1.056 8.202-3.292 15.649-6.552 22.515l0.192-0.451c-2.679 6.598-6.537 12.21-11.359 16.824l-0.018 0.017c-4.707 5.043-10.39 9.109-16.755 11.908l-0.326 0.128c-6.402 3.309-13.85 5.687-21.723 6.714l-0.341 0.036c-4.503 0.841-9.683 1.323-14.976 1.323-3.498 0-6.945-0.21-10.333-0.619l0.409 0.040c-9.052-0.65-17.462-2.576-25.325-5.605l0.598 0.202c-7.97-2.624-14.887-6.319-21.017-10.994l0.172 0.126c-5.654-3.838-10.325-8.682-13.855-14.314l-0.117-0.2c-3.426-4.375-5.623-9.857-5.997-15.835l-0.004-0.082c-0.137-1.091-0.216-2.354-0.216-3.636 0-5.093 1.24-9.896 3.434-14.125l-0.080 0.171c3.001-7.511 7.261-13.927 12.578-19.295l-0.004 0.004c6.567-7.177 13.959-13.432 22.071-18.666l0.441-0.266c8.519-5.972 18.244-11.597 28.451-16.366l1.199-0.503c8.981-4.542 19.817-9.022 31.007-12.726l1.751-0.502c8.813-3.178 19.711-6.21 30.88-8.502l1.623-0.278c8.46-2.061 18.544-3.659 28.85-4.465l0.681-0.043c3.641-0.249 7.891-0.392 12.176-0.392 4.436 0 8.836 0.152 13.195 0.453l-0.589-0.032c8.899 0.207 13.138 0.834 19.737 0.942 1.586 0.207 3.422 0.325 5.283 0.325 2.82 0 5.575-0.271 8.244-0.788l-0.271 0.044c2.827-1.074 3.372-2.827 1.045-4.989-3.548-2.892-7.883-4.954-12.636-5.825l-0.173-0.026c-5.859-1.544-12.585-2.431-19.518-2.431-0.54 0-1.077 0.005-1.614 0.016l0.080-0.001c-0.349-0.003-0.763-0.004-1.177-0.004-8.81 0-17.448 0.73-25.86 2.132l0.911-0.125c-11.877 1.503-22.23 3.485-32.352 6.047l1.836-0.394c-13.462 2.967-24.636 6.184-35.528 10l2.144-0.654c-13.597 4.427-24.809 8.958-35.653 14.137l1.764-0.759c-12.164 5.347-22.467 10.966-32.236 17.334l0.853-0.522c-9.6 5.695-17.891 12.178-25.258 19.582l-0.005 0.005c-6.747 6.106-12.164 13.547-15.854 21.92l-0.162 0.414c-2.807 5.551-4.45 12.101-4.45 19.035 0 1.7 0.099 3.376 0.291 5.025l-0.019-0.2c0.393 8.399 3.22 16.067 7.786 22.4l-0.084-0.123c4.625 7.187 10.591 13.106 17.592 17.541l0.233 0.138c6.958 5.078 15.029 9.192 23.713 11.919l0.589 0.159c8.137 3.113 17.559 5.251 27.374 5.981l0.334 0.020c3.67 0.498 7.91 0.782 12.218 0.782 5.597 0 11.084-0.48 16.418-1.4l-0.571 0.081c9.561-1.119 18.262-3.821 26.178-7.847l-0.439 0.202c8.121-3.581 15.008-8.563 20.654-14.705l0.040-0.044c5.768-5.747 10.345-12.683 13.332-20.411l0.136-0.401c3.272-7.401 5.559-15.982 6.422-24.98l0.026-0.339c0.867-6.003 1.363-12.934 1.363-19.98 0-2.876-0.082-5.732-0.245-8.566l0.018 0.393c-0.24-11.705-1.164-17.976-2.299-30.459s-2.238-19.261-3.372-31.891-1.672-19.709-2.327-31.175 0.509-17.769-0.867-26.159c-0.609-6.028-2.792-11.451-6.125-15.973l0.062 0.089c-1.822-3.22-5.142-5.407-8.989-5.613l-0.028-0.001c-0.428-0.042-0.923-0.067-1.426-0.067-3.357 0-6.462 1.084-8.982 2.923l0.043-0.030c-3.532 2.605-6.649 5.269-9.567 8.134l0.013-0.013c-3.162 2.682-6.715 5.082-10.515 7.073l-0.319 0.152c-3.767 1.995-8.136 3.566-12.739 4.485l-0.309 0.051c-4.042 1.013-8.683 1.594-13.46 1.594-0.402 0-0.803-0.004-1.203-0.012l0.060 0.001c-0.216 0.003-0.473 0.004-0.728 0.004-4.925 0-9.708-0.601-14.282-1.733l0.407 0.085c-4.98-0.914-9.424-2.491-13.506-4.662l0.25 0.121c-3.853-1.833-7.084-4.396-9.636-7.534l-0.040-0.050c-2.352-3.014-4.31-6.491-5.707-10.241l-0.088-0.269c-2.002-4.15-2.271-6.689-4.24-10.274-1.33-3.034-3.246-5.589-5.624-7.621l-0.029-0.024c-1.804-1.963-4.385-3.188-7.252-3.188-0.233 0-0.465 0.008-0.694 0.024l0.031-0.002c-3.436 0.556-6.354 2.426-8.275 5.070l-0.025 0.036c-2.19 3.084-4.15 6.601-5.716 10.325l-0.135 0.363c-2.12 4.195-4.204 7.703-6.489 11.063l0.219-0.341c-2.215 3.187-4.746 5.938-7.605 8.307l-0.068 0.055c-2.318 2.132-5.083 3.819-8.134 4.903l-0.167 0.052c-2.209 0.976-4.785 1.545-7.494 1.545-0.495 0-0.984-0.019-1.469-0.056l0.064 0.004c-0.018 0-0.039 0-0.061 0-3.406 0-6.638-0.737-9.548-2.061l0.144 0.059c-3.78-1.477-7.045-3.347-9.983-5.621l0.091 0.068c-3.696-2.589-6.932-5.377-9.868-8.454l-0.024-0.025c-3.164-3.333-6.204-6.895-9.052-10.612l-0.232-0.316c-3.674-4.569-5.285-7.316-9.077-11.885-3.054-4.040-6.285-7.613-9.803-10.881l-0.051-0.047c-3.256-3.336-7.144-6.040-11.473-7.918l-0.233-0.090c-3.112-1.476-6.762-2.338-10.612-2.338-1.091 0-2.166 0.069-3.221 0.203l0.125-0.013c-5.32 0.407-10.178 2.076-14.372 4.707l0.131-0.077c-5.415 3.034-10.082 6.542-14.226 10.584l0.014-0.013c-4.547 4.187-8.719 8.592-12.572 13.271l-0.18 0.225c-4.48 5.135-6.51 8.244-9.704 12.247-2.081 2.887-4.127 5.408-6.306 7.807l0.065-0.072c-2.002 1.941-2.299 2.449-3.769 1.969s-1.913-1.315-3.496-4.447c-1.64-3.146-3.151-6.848-4.324-10.697l-0.123-0.472c-1.851-5.761-2.747-9.554-4.928-17.618s-3.703-13.048-5.884-22.752-3.194-15.706-5.045-25.739-2.12-16.152-4.179-24.363c-1.509-6.375-3.591-11.969-6.262-17.211l0.199 0.432c-2.355-5.017-3.435-6.896-5.733-8.3-0.628-0.501-1.433-0.803-2.309-0.803-1.461 0-2.726 0.842-3.334 2.067l-0.010 0.022"></path>
</svg>
